<?xml version="1.0" encoding="UTF-8"?>
<!DOCTYPE svg PUBLIC "-//W3C//DTD SVG 1.1//EN" "http://www.w3.org/Graphics/SVG/1.1/DTD/svg11.dtd">
<!-- Creator: CorelDRAW 2021.5 -->
<svg xmlns="http://www.w3.org/2000/svg" xml:space="preserve" width="338.667mm" height="338.667mm" version="1.1" style="shape-rendering:geometricPrecision; text-rendering:geometricPrecision; image-rendering:optimizeQuality; fill-rule:evenodd; clip-rule:evenodd"
viewBox="0 0 33866.66 33866.66"
 xmlns:xlink="http://www.w3.org/1999/xlink"
 xmlns:xodm="http://www.corel.com/coreldraw/odm/2003">
 <defs>
  <style type="text/css">
   <![CDATA[
    .fil0 {fill:#A80049}
   ]]>
  </style>
 </defs>
 <g id="Layer_x0020_1">
  <metadata id="CorelCorpID_0Corel-Layer"/>
  <g id="_2172627711024">
   <path class="fil0" d="M7423.63 16640.66c0,234.33 -18.45,661.64 14.86,884.11 20.12,134.31 14.32,275.68 28.32,410.68 4.11,39.56 16.96,81.57 19.25,127.13 5.89,117.59 65.56,534.52 95.64,646.5l25.29 131.52c5.32,24.64 4.02,39.01 10.09,63.05 53.85,213.22 95.89,438.4 161.9,653.46 11.4,37.15 21.94,74.54 32.4,113.95 51.99,195.96 121.51,374.63 184.56,568.06 14.12,43.33 23.37,65.31 39.98,106.36l79.28 213.42c66.83,151.99 149.9,383.63 228.79,523.83 12.15,21.58 12.13,18.42 25.9,47.24 12.56,26.26 10,24.94 21.21,51.96 14.79,35.63 31.65,65.05 48.21,98.16l585.19 1014.12c1.32,1.74 3.26,4.13 4.58,5.87 1.31,1.76 3.23,4.15 4.52,5.91 1.3,1.8 3.19,4.23 4.45,6.02l299.37 432.33c1.35,1.72 3.41,4.01 4.77,5.7 1.37,1.67 3.41,3.98 4.78,5.67l53.18 72.27c1.35,1.7 3.38,4.01 4.75,5.67 1.39,1.69 3.43,4.01 4.8,5.67l48.48 66.51c16.46,21.65 4.55,5.87 18.95,22.87 102.88,121.41 196.13,247.71 303.12,365.88 12.85,14.2 22.7,25.28 33.94,39.24l136.64 156.03c92.81,101.19 238.09,271.25 345.64,365.16l85.53 81.72c1.59,1.45 3.95,3.43 5.57,4.87l287.11 266.91c122.83,113.72 258.47,217.17 386.79,324.03l121.28 98.23c99.97,83.51 209.64,151.64 311.83,231.72l754.13 489.79c23.22,14.47 24.66,13.53 47.78,25.39 5.65,2.88 19.67,10.44 27.08,14.74l937.39 473.78c16.61,6.92 14.69,6.59 28.9,12.91 21.2,9.4 33.81,14.1 51.39,21.78l320.37 129.08c201.69,71.68 400.99,153.58 605.6,209.77l290.35 85.95c312.87,91.24 714.1,185.87 1032.57,232.24 109.59,15.96 216.95,38.01 331.52,44.82l261.03 31.65c86.4,12.63 185.52,13.38 276.64,26.49 46.47,6.68 93.84,4.25 142.32,4.02 102.18,-0.47 279.68,21.16 428.33,21.16l271.77 0c170.11,0 308.48,-22.05 470.45,-20.86 95.43,0.7 150.22,-17.1 229.88,-20.98l1092.91 -151.02c34.88,-7.56 52.59,-12.53 94.23,-20.76l453.05 -111.41c26.7,-6.86 22.8,-7.93 48.16,-14.57l1122.15 -372.64c34.45,-14.37 53.9,-20.43 88.58,-36.84 32.07,-15.17 57.01,-23.17 89.18,-36.25 247.23,-100.52 485.47,-221.78 721.04,-345.17 17.85,-9.37 18.25,-10.57 39.28,-23.45 30.29,-18.54 50.03,-25.7 82.45,-42.99 29.51,-15.73 52.68,-28.51 80.8,-44.62 10.24,-5.87 10.32,-5.95 19.81,-11.54l13.09 -7.83c1.96,-1.17 4.59,-2.73 6.56,-3.91l13.1 -7.8c1.96,-1.17 4.58,-2.73 6.54,-3.9l193.28 -109.87c174.98,-102.86 548.52,-344 697.37,-462.89l563.86 -439.65c1.59,-1.46 3.9,-3.5 5.5,-4.97l577.16 -530.84c9.07,-8.28 7.03,-6.02 16.83,-14.52l16.83 -14.55c10.94,-9.92 21.45,-20.44 31.35,-31.37l387.81 -417.07c1.44,-1.62 3.45,-3.96 4.89,-5.55l25.29 -27c1.44,-1.59 3.48,-3.93 4.92,-5.52l630.74 -801.32 243.28 -363.01c1.22,-1.87 3.01,-4.36 4.23,-6.22l411.62 -717.31c14,-28.15 26.63,-56.77 41.92,-83.51l354.99 -763.51c7.76,-17.31 11.29,-26.16 17.93,-44.78l119.96 -319.06c44.25,-119.76 96.07,-250.42 125.4,-376.35 -56.29,-13.09 -111.38,-21.4 -173.28,-35.8 -90.53,-21.03 -465.88,-5.99 -579.33,-5.99 -227.19,0 -38.04,-31.43 -397.5,-0.3 -406.41,35.18 -1062.13,209.22 -1424.93,372.99 -347.35,156.81 -551.2,233.11 -889.11,459.34 -202.88,135.82 -499.44,367.17 -661.72,561.3 -118.84,142.19 -388.03,359.21 -506.37,507.56 -36.4,45.6 -70.54,74.07 -102.98,116.53 -20.59,26.95 -32.3,34.91 -54.78,60.22 -22.17,24.94 -27.57,36.57 -52.38,62.61 -36.4,38.21 -64.67,79.91 -99.58,119.93 -216.55,248.28 -294.77,381.77 -441.28,677.19l-76.67 142.83c-179.86,335.1 -394.35,652.4 -622.24,956.17l-354.39 429.6c-18.9,21.48 -36.73,36.89 -57.41,57.58 -56.69,56.61 -102.11,119.59 -162.1,172.39 -365.71,321.95 -661.7,590.2 -1103.56,809.36 -203.12,100.72 -405.73,190.64 -642.35,256.61 -923.37,257.4 -1818.45,103.87 -2630.53,-384.53 -212.53,-127.82 -559.01,-373.46 -740.41,-555.78 -70.01,-70.33 -157.78,-134.55 -216.75,-211.8 -42.37,-55.54 -214.47,-228.26 -301.66,-335.97 -229.95,-284.03 -447.87,-575.32 -635.81,-890.36 -275.93,-462.54 -509.61,-943.58 -709.63,-1443.69l-230.52 -637.08c-37.37,-111.13 -68.18,-214.14 -101.74,-326.82 -597.99,-2006.53 -695.24,-4260.48 -324.73,-6321.83 122.05,-678.95 276.97,-1246.51 489.22,-1883.64 20.16,-60.52 38.16,-108.47 57.56,-161.96 85.92,-237.13 197.63,-531.36 311.25,-754.92l445.86 -850.33c29.76,-49.67 54.75,-86.89 83.67,-135.85 28.39,-48.03 53.2,-82.09 80.77,-128.26 133.04,-222.85 300.79,-423.89 459.54,-627.61 16.43,-21.1 27.22,-34.41 46.09,-58.43 19.37,-24.63 31.43,-32.74 49.43,-55.09 20.93,-26.01 23.17,-31.23 48.18,-56.36l261.26 -282.3c513.74,-513.88 1184.7,-963.1 1892.51,-1138.88 1091.4,-271.05 2134.16,38.12 2979.81,714.35 21.46,17.19 44.48,31.95 65.71,49.28l680.44 657.55c25.01,25.13 27.25,30.35 48.18,56.36 115.09,142.93 241.17,287.71 346.41,437.56 123.37,175.65 239.78,346.11 353.5,534.99 111.21,184.7 199.99,387.31 328.88,559.63 33.64,44.95 61.84,80.08 93.21,126.3 75.84,111.73 298.7,391.12 397.78,490.74l544.09 563.96c24.64,20.61 33.47,23.12 57.43,47.09 25.34,25.33 29.54,37.62 51.94,63.05 527.56,599.09 1364.91,990.37 2120.73,1213.79 118.12,34.91 231.52,68.37 356.51,92.99 700.58,137.96 745.72,95.64 1361.99,91.82 93.21,-0.58 191.12,-31.58 281.79,-52.69 -0.89,-40.11 -10.53,-64.96 -20.76,-94.23 -10.81,-30.95 -21.2,-62.6 -31.5,-93.93l-283.65 -740.75c-3.56,-8.31 -4.25,-10.5 -9.03,-22.33 -4.8,-11.81 -5.47,-14 -9.02,-22.33l-48.43 -108.35c-6.59,-13.05 -15.89,-31.65 -20.37,-42.37l-101.68 -211.9c-13.75,-27.27 -25.86,-57.43 -38.62,-86.84l-40.65 -74.32c-16.93,-28.91 -29.63,-56.71 -42.61,-82.82l-357.08 -635.95c-17.7,-27.48 -30.38,-44.31 -48.65,-76.78 -73.35,-130.36 -166.91,-251.69 -250.25,-376.94 -11.06,-16.64 -9.25,-15 -21.45,-30.83l-78.94 -109.2c-9.42,-14.25 -14.59,-22.87 -25.58,-37.15l-53.98 -71.48c-4.43,-6.23 -8.9,-12.22 -13.43,-17.92l-373.88 -462.37c-11.66,-13.42 -16.26,-18.64 -28.39,-34.31l-506.41 -549.34c-1.59,-1.46 -3.95,-3.45 -5.56,-4.9l-379.31 -352.4c-8.18,-7.26 -8.18,-6.81 -16.81,-14.54l-843.56 -672.17c-1.79,-1.29 -4.35,-3 -6.16,-4.27 -184.74,-128.91 -369.04,-252.83 -562.25,-368.07l-679.24 -376.54c-156.46,-78.09 -384.38,-196.19 -549.07,-255.81 -23.15,-8.35 -21.58,-6.56 -45.08,-17.65 -169.75,-80.04 -354.24,-147.91 -534.61,-207.53 -39.84,-13.15 -54.6,-17.82 -94.36,-31.08l-566.96 -175.21c-14.45,-4.32 -32.43,-8.35 -49.41,-13.32l-554.93 -134.96c-72.92,-14.41 -126.18,-26.82 -201.63,-38.78l-868.95 -124.09c-87.22,-0.6 -151.42,-18.77 -229.81,-21.08 -171.97,-5.05 -309.68,-20.57 -481.19,-20.57 -399.44,0 -843.81,-2.33 -1239.15,57.04l-460.3 62.35c-30.93,6.62 -34.91,3.71 -66.46,6.7l-125.41 20.95c-89.23,8.23 -497.03,97.34 -621.26,131.35 -188.04,51.49 -384.83,101.96 -568.24,163.47 -41.27,13.85 -69.96,19.54 -112.82,33.52l-1271.55 515.92c-137.94,69.24 -279.21,135.43 -412.5,214.71 -198.3,117.95 -404.76,224.64 -595.11,356.08 -1.84,1.28 -4.3,3.09 -6.09,4.38l-86.89 59.45c-1.89,1.19 -4.4,2.96 -6.29,4.17l-219.02 146.82c-1.74,1.34 -4.13,3.28 -5.87,4.6l-489.94 367.22c-1.64,1.42 -3.97,3.4 -5.64,4.8 -8.33,6.91 -12.21,10.21 -23.39,18.42l-379.34 321.03c-56.18,51.98 46.4,-41.38 -10.96,9.94 -1.59,1.44 -3.93,3.48 -5.55,4.9l-276.02 257.08c-15.36,15.36 -23.77,23.64 -36.6,36.57 -7.03,7.06 -13.52,13.9 -20.86,20.96l-624.3 671.86c-15.89,20.76 -15.76,22 -32.76,40.4 -10.17,11.02 -6.27,5.67 -15.3,16.09l-540.29 724.54c-1.26,1.8 -3.2,4.16 -4.49,5.97l-24.24 38.44c-1.25,1.89 -2.96,4.42 -4.21,6.27l-283.36 437.9c-1.16,1.96 -2.73,4.58 -3.9,6.56l-354.02 649.46c-18.72,37.35 -31.92,62.63 -47.04,99.3 -45.54,110.49 -133.96,273.82 -188.16,407.68l-165.63 419.72c-16.31,40.83 -29.93,71.64 -43.51,113.3 -48.51,149.18 -107.18,295.8 -147.26,448.55l-190.77 697.74c-40.73,164.4 -61.49,334.43 -96.69,499.14l-77.35 518.49c-2.17,57.58 -8.85,76.78 -16.88,129.43 -7.68,50.1 -1.07,97.72 -8.33,148.46 -18.97,132.24 -37.54,435.29 -37.54,558.29z"/>
   <path class="fil0" d="M16444.62 17581.43l71.45 -43.5c24.17,-16.59 32.72,-38.84 59.43,-55.57l119.93 -110.02c28.22,-35.36 35.35,-24.46 57.36,-57.63l73.99 -93.26c30.78,-50.53 67.7,-84.16 93.98,-135.98l66.88 -110.83c29.66,-55.62 54,-96.02 67.85,-162.1 14.45,-68.77 1.84,-150.6 5.79,-224.19 3.76,-69.57 21.21,-144.11 21.31,-219.09 0.25,-174.96 -2.53,-486.29 -50.35,-640.27 -13.87,-44.6 -6.58,-15.03 -16.01,-36.24 -6.26,-14.1 -13.15,-35.21 -16.58,-46.15 -38.02,-120.9 -26.25,-75.28 -69.67,-160.31 -13.52,-26.46 -24.16,-58.53 -33.99,-80.98 -11.98,-27.4 1.45,-6.46 -18.79,-33.49 -52.33,-69.91 -87.51,-161.51 -149.05,-227.24l-143.58 -180.48c-31.38,-31.1 -47.86,-65.27 -83.17,-94.53l-90.72 -76.52c-13.5,-11.24 -19.32,-20.27 -30.29,-32.45 -26.25,-29.14 -0.19,-5.32 -26.95,-25.31 -15.16,-11.34 -20.16,-13.33 -36.72,-25.98l-544.79 -333.28 -298.37 -98.86c-131.43,-27.2 -251.96,-60.66 -388.4,-71.5l-219.07 -11.39c-51.44,0.07 -69.84,5.29 -105.96,9.3l-304.69 29.81c-88.14,29.09 -186.03,30.08 -275.41,69.54 -2.21,1 -4.85,2.36 -7.03,3.4l-20.47 10.89c-2.85,1.32 -21.65,8.83 -22.32,9.06l-160.07 59.44c-2.09,1.09 -4.75,2.51 -6.88,3.56 -2.19,1.07 -4.93,2.28 -7.19,3.28 -14.82,6.61 -28.07,10.89 -44.73,18l-328.01 184.15c-1.81,1.28 -4.3,3.09 -6.07,4.4l-274.77 226.95c-1.55,1.54 -3.76,3.68 -5.33,5.17l-172.32 172.62c-24.54,31.06 -21.33,33.94 -50.42,64.55 -59.7,62.8 -99.85,149.97 -146.87,208.54 -31.4,39.06 -20.18,29.09 -41.27,73.72l-25.56 37.15c-25.11,33.12 -36.67,79.16 -53.92,113.32 -54.08,106.96 -70.76,182.69 -93.44,220.16 -32.39,53.48 -39.06,142.04 -58.82,212.98 -0.92,3.35 -3.91,12.7 -5.05,15.83l-9.74 21.63c-0.97,2.26 -2.39,4.82 -3.31,7.14l-5.85 15.07c-26.95,83.48 -42.58,251.13 -43.58,332.73 -1.96,159.37 1.84,315.8 11.22,459.98 5.17,79.29 16.03,178.74 44.7,247.98l66.26 226.45c28.52,49.3 42.16,119.59 72.05,168.34 29.71,48.44 42.66,108.95 76.55,153.43 5.05,6.61 5.27,5.49 12.78,18.6l107.48 185.2c56.54,94.45 136.82,179.93 208.27,262.1l235.03 224.91c28.52,26.68 7.86,5.74 31.83,20.44l39.77 33.41c1.62,1.42 3.83,3.55 5.5,4.95l123.91 85.15c21.94,16.36 16.81,10.72 40.68,22.03 27.4,13 15.14,4.87 38.41,24.32 18.25,15.24 -1.54,5.89 29.84,22.42l358.56 164.1c14.6,5.04 24.42,6.61 40.21,12.06l29.16 12.65c27.7,13 -15.06,-5.3 13.88,7.01 52.18,22.18 148.27,28.42 191.34,49.08l-34.34 122.45c-1.02,2.16 -2.58,4.67 -3.6,6.83 -51.37,108.56 -44.18,245.25 -69.02,359.59l-4.97 15.91c-0.8,2.49 -2.27,4.93 -3.11,7.36l-6.02 14.87c-11.41,40.65 -11.18,321.25 -3.88,371.44 10.45,71.66 10.22,-10.91 20.47,73.63 10.74,88.58 27.22,253.67 52.76,323.56l45.76 131.92c5.43,19.37 14.32,55.71 21.46,72.62l88.49 193.75c1.22,1.89 2.96,4.38 4.15,6.3l73.14 146.39c3.88,5.87 17.46,28.09 19.82,32.44l308.35 433.8 498.07 442.71c77.69,49.67 147.16,110.39 226.89,149.42l40.93 21.78c91.49,66.43 205.74,99.01 302.33,157.63 6.12,3.73 1.79,3.33 19.49,11.86 18.5,8.9 45.75,16.21 68.42,25.66l97.22 38.68c62.48,33.64 151.51,45.53 209.41,72.8l289.95 75.91c2.46,0.89 5.12,2.01 7.63,2.81 7.98,2.58 40.88,8.97 43.02,9.27 108.55,16.11 427.58,40.65 467.71,54.95 9.52,3.38 -8.8,1.51 22.97,8.37 21.18,4.58 68.1,2.27 91.97,2.12 56.16,-0.32 135.7,4.97 188.58,0.35 86.43,-7.54 -0.52,-10.2 73.3,-20.79 26.15,-3.75 64.52,1.12 93.01,-1.07l375.32 -53.23c2.57,-0.82 5.25,-1.84 7.74,-2.73l14.71 -6.17c72.9,-28.54 146.82,-34.66 226.18,-56.06l66.04 -28.05c18.72,-7.98 47.41,-15.31 70.95,-23.12l229.96 -94.11c2.88,-1.39 11.26,-5.34 14.04,-6.86l19.47 -11.88c1.3,-0.85 15.39,-11.34 25.11,-16.69 33.67,-18.57 66.78,-23.91 99.5,-46.86 1.79,-1.27 4.15,-3.24 5.92,-4.53l166.58 -105.19c12.73,-7.68 16.18,-9.85 26.25,-15.56l183.99 -140.08c37.64,-25.08 14.72,-20.39 45.62,-48.45 77.05,-70 59,-37.87 152.38,-140.28l142.99 -170.61c1.46,-1.56 3.73,-3.68 5.22,-5.25 50.94,-53.85 91.02,-131.79 128.02,-196.04 4.42,-7.68 9.62,-13.84 17.3,-24.49l8.8 -12.11c6.02,-8.77 6.04,-9.12 12.16,-19.22 15.61,-25.85 19.39,-32.61 31.88,-62.17l59.84 -128.32c39.98,-110.59 70.24,-155.26 95.2,-281.12 26.1,-131.72 38.93,-53.93 59.39,-316.9 12.91,-165.76 19.44,-361.75 -6.51,-538.65 -8.13,-55.42 -24.62,-116.28 -25.63,-162.5 81.17,0 262.3,-13.33 322.54,-32.84l139.53 -38.19c28.86,-7.26 45.89,-11.07 74.88,-19.19 13.53,-3.81 19.99,-5.3 32.37,-9.46l36.21 -16.05c2.98,-1.64 9.57,-7.54 26.9,-14.92 13.59,-5.79 17.08,-5.3 31.42,-10.37 28.67,-10.14 38.99,-16.28 66.96,-27.13 7.31,-2.85 19.76,-7.16 29.16,-12.65l121.08 -67.08c28.94,-18.92 2.11,-1.54 23.55,-18.27l267.87 -233.86c62.6,-59.05 103.95,-160.07 130.67,-203.82l46.4 -131.33c27.09,-137.29 38.11,-341.59 -39.21,-475.2l-30.06 -53.55c-10.44,-20.04 -25.28,-44.88 -34.93,-59.15l-126.97 -144.8c-29.14,-31.2 -18.88,-11.93 -54.7,-39.35l-102.91 -74.84c-44.98,-23.02 -20.01,-3.23 -57.7,-36.38l-92.25 -64.54c-135.92,-108.68 -308.27,0.17 -375.84,13.2 -34.41,6.64 -56.27,0.4 -81.38,-5.17l-267.05 -88.66c-44.77,-23.57 -90.72,-28.32 -135.1,-53.03l-38.81 -23.92c-6.04,-2.93 -15.99,-6.46 -22.43,-8.92 -26.4,-10 -45.84,-16.76 -67.77,-26.31l-88.29 -47.59c-6.09,-2.9 -24.99,-9.27 -30.58,-11.21 -31.87,-11.11 -38.59,-13.6 -66.71,-27.4 -4.12,-2.04 -21.48,-11.46 -27,-14.81 -57.58,-34.79 -223.76,-99.46 -293.65,-124.47l-48.56 -24.61c-40.45,-22.68 -101.44,-34.73 -150.37,-48.26l-48.13 -14.55c-2.26,-0.96 -4.85,-2.38 -7.03,-3.42 -2.17,-1.03 -4.68,-2.62 -6.82,-3.66 -2.09,-1.04 -4.6,-2.68 -6.71,-3.73l-229.31 -42.49c-20.14,-1.39 -140.3,-21.38 -160.21,-27.92l-69.47 -14.17c-56.76,-0.77 -131.32,-8.86 -186.86,2.81l-73.2 20.91c-82.55,13.15 -174.09,25.56 -249.17,64.42l-123.2 54.49c-2.86,1.45 -10.99,5.63 -13.7,7.19 -1.96,1.17 -4.55,2.81 -6.44,4.03 -40.92,26.06 26.18,-18.47 -12.23,8.68 -12.6,8.92 -14.79,11.61 -24.41,17.4l-228.54 189.57c-10.84,14.5 -7.26,9.83 -19.89,21.93l-106.51 123.47c-1.69,1.35 -3.91,3.48 -5.72,4.72 -45,31.11 -148.51,21.78 -190.1,-0.91 -24.39,-13.31 -5.67,-8.11 -28.07,-13.73 -60.97,-15.32 -159.44,-3.58 -214.71,10.35 -76.61,19.29 -223,51.33 -279.81,86.04 -23.94,14.63 -6.83,7.24 -33.02,19.25l-563.55 345.86c-39.21,29.36 -99.08,41.27 -139.91,69.15 -40.3,27.52 -92.88,41.81 -139.33,59.26l-105.71 40.63c-72.35,20.14 -146.52,60.69 -199.7,113.92 -2.14,2.14 -7.9,8.7 -10.02,10.87 -10.54,10.76 -9.99,9.72 -15.89,15.48 -65.83,64.32 -107.85,152.34 -124.13,241.99 -36.95,203.45 77.79,192.46 93.03,249.55l52.26 0c7.56,-32.42 13.35,-30.28 20.91,-62.7 -48.93,-35.86 11.12,-29.71 -62.73,-31.38l27.43 -56.22c38.36,-86.32 44.43,-93.83 111.88,-159.86 29.34,-28.74 110.99,-80.41 154.37,-86.07 39.33,-5.13 77.47,0.82 120.11,-5.33l339.57 -26.27c11.22,-0.46 17.63,-0.48 28.55,-2.81l74.56 -19.52c76.7,-7.61 134.23,-19.15 207.18,-33.24l368.44 -122.87 67.62 110.06c29.94,69.27 27.25,56.34 26.51,151.19 -0.9,116.71 23.32,235.25 2.91,337.56 -10.54,52.86 -21.93,102.61 -31.23,146.44 -14.62,68.77 -60.12,104.75 -113.07,148.28l-125.93 83.12c-1.89,1.24 -4.53,2.81 -6.52,3.95l-94.43 41.45c-31.57,17.75 -4.37,3.63 -24.66,17.15 -48.11,32.05 -99.7,48.95 -147.04,82.94 -27.67,19.87 -27,13.13 -53.85,29.76l-99.6 78.12c-7.38,6.69 -15.73,13.83 -21.85,19.94 -3.93,3.91 -21.81,24.47 -24.44,27.82l-31.33 52.29c-1.07,2.19 -2.16,5.05 -3.26,7.23l-7.08 13.8c-47.09,87.2 -45.13,169.99 5.74,250.27 20.98,33.12 30.06,54.35 63.7,82.67 1.64,1.39 4.02,3.35 5.66,4.75 29.84,25.36 36.03,42.83 79.05,46.41 0,-59.22 9.1,-40.15 -20.91,-52.26l0 -41.82c20.04,-8.07 40.25,-48.18 92.81,-74.41l211.45 -123.05c22.55,-8.47 43.73,-13.82 63.2,-20.43l57.56 -26.08c89.06,-41.92 212.85,-28.17 297.93,-78.37 40.23,-23.74 101.36,-42.79 132.49,-76.55 28.44,-30.88 17.45,-20.81 53.96,-40.13 5.54,10.47 12.8,22.55 18.64,33.64l50.52 74.91c69.42,84.26 -9.7,8.66 86.32,91.37 35.68,30.73 47.57,29.96 95.95,39.98 91.97,19.04 174.46,5.3 241.19,-50.42 38.71,-32.32 57.18,-67.33 80.88,-107.28 29.63,-49.97 29.24,-153.98 10.47,-216.68l-19.74 -42.96c-32.03,-49.95 -53.83,-114.89 -88.81,-162.08 -11.42,-15.39 -14.32,-22.5 -21.86,-40.85l-48.3 -108.5c-28.97,-54.97 -35.26,-139.9 -52.04,-198.83l-19.42 -74.66c-10.82,-107.7 -17.98,-258.52 -1.59,-358.39 10.49,-63.98 58.3,-246.71 86.1,-290.23l25.36 -37.36c14.79,-25.31 8.9,-20.04 20.28,-42.42 17.01,-33.41 7.44,-14.59 27.11,-35.6l55.36 -70.09c3.56,-3.26 15.87,-13.47 16.91,-14.47l46.09 -47.96c71.69,-54.28 98.09,-63.72 184.26,-97.98 41.25,-16.39 58.36,-26.28 121.38,-35.43 112.26,-16.29 281.37,-16.78 394.6,22.7 2.43,0.87 5.02,2.14 7.46,3l15.09 5.82c76.87,24.19 175.1,41.22 249.97,74.07l71.73 22.35c74.93,21.71 111,49.98 178.01,72.85l128.89 59.27c42.59,21.88 93.93,30.91 133.59,54.58l256.38 119.93c12.58,4.03 31.28,9.67 45.39,17.31 74.94,40.49 144.76,50.96 216.81,86.34 52.76,25.88 135.9,45.43 203.62,57.69 121.23,21.95 12.24,24.44 225.28,25.68l115.16 -10.7c10.72,-3.92 -11.08,-1.78 23.58,-8.97 4.99,-1.04 22.94,-2.26 27.54,-1.86l32.72 10.19c2.24,1.05 4.72,2.66 6.86,3.81 91.37,48.82 176.28,119.51 145.13,232.93 -5.92,21.53 -27.9,69.62 -41,84.56l-61.44 64.02c-23.74,22.87 -19.24,12.98 -37.44,25.28 -12.45,8.41 -4.82,2.22 -17.65,13.7l-55.22 38.86c-16.54,7.81 -20.81,10 -41.62,21.09l-222.33 91.29c-108.54,50.65 -373.6,58.46 -507.91,37.99 -38.44,-5.86 -70.59,-10.56 -107.76,-17.7l-53.42 -19.74c-2.17,-1.02 -4.7,-2.53 -6.91,-3.51 -59.23,-26.2 -181.7,-39.97 -242.59,-6.23l-121.58 97.93c-57.63,61.63 -88.34,227.09 -24.09,317.44 0.5,0.7 13.43,16.44 14.1,17.26l60.91 64.52c34.58,26.08 25.28,0.17 46.57,47.51 13.57,30.18 17.15,61.46 28.84,96.62 1.94,5.81 5.91,16.7 8.5,22.85 69.32,164.09 74.66,487.45 51.64,655.12 -9.67,70.59 -17.73,155.22 -41.47,209.4l-6.86 14.04c-24.94,56.07 -30.88,121.35 -57.18,172.8 -20.14,39.43 -2.94,-2.14 -25.44,37.27 -7.11,12.45 -13.73,31.35 -18.95,43.78 -4.54,10.84 -14.46,34.95 -19.02,43.68l-97.23 153.68c-13.5,15.76 -14.77,12.78 -29.79,32.92l-51.14 63.85c-1.44,1.59 -3.58,3.8 -5.02,5.44 -40.28,45.75 -143.56,161.51 -190.15,196.59l-19.52 11.83c-2.61,1.69 -10.17,6.44 -12.73,8.21 -2.31,1.59 -15.19,11.58 -17.85,13.5l-161.71 120.53c-27.05,16.14 -52.16,23 -82.69,42.71l-327.22 153.63c-69.91,42.07 -176.99,44.21 -257.6,76.9 -50.79,20.61 -105.56,22.5 -158.2,29.96 -29.44,4.15 -73.67,9.55 -110.66,14.77 -236.54,33.29 -713.31,28.27 -947.69,-57.71 -3.53,-1.29 -22.95,-6.86 -24.19,-7.16l-153.13 -35.03c-23.37,-6.69 -22.95,-6.27 -45.42,-17.3l-13.65 -7.24c-58.43,-27.65 -115.32,-29.76 -174.54,-55.44 -47.98,-20.79 -8.13,-5.02 -39.33,-23.37 -40.93,-24.07 -91.74,-28.52 -133.11,-55.07 -18.18,-11.67 -4.45,-4.08 -18.55,-12.81l-141.07 -78.41c-63.75,-41.23 -37.02,-6.99 -130.68,-78.42 -9.47,-7.21 -6.98,-5.37 -19.17,-12.18l-181.55 -132.05c-33.11,-31.47 -39.75,-18.82 -70.23,-55.19 -46.32,-55.35 -29.91,-18.83 -69.72,-55.72 -44.92,-41.67 -75.06,-87.62 -123.12,-127.75 -47.81,-39.95 -14.94,-32.04 -55.16,-70.28 -74.77,-71.01 -113.65,-155.44 -163.38,-212.93l-27.05 -35.67c-9.47,-18 -7.93,-22.58 -19.82,-42.89l-49.07 -76.38c-11.84,-22.45 -9.7,-13.92 -20.86,-41.84 -19.75,-49.33 -43.07,-78.07 -59.33,-128.84 -58.82,-183.64 -71.92,-158.62 -106.55,-395.19 -5.7,-38.86 -21.51,-61.41 -21.98,-103.45 -3.24,-278.44 -5.33,-286.27 55.54,-552.25 3.08,-13.45 6.96,-29.44 13.55,-49.15l19.12 -43.61c16.26,-32.65 21.48,-55.8 34.78,-90.68l121.68 -254.62c9.72,-40.18 14.37,-118.12 -6.74,-167.5 -56.26,-131.67 -103.48,-145.51 -192.28,-184 -20.04,-8.68 -26.41,-7.51 -50.58,-12.16 -44.25,-8.53 -60.91,-17.5 -97.31,-28.12l-155.44 -32.72c-18.15,-6.26 -28.07,-8.25 -50.42,-12.3 -64.65,-11.69 -143.76,-22.41 -200.57,-50.3l-41.05 -21.68c-19.49,-7.39 -28.69,-7.36 -48.1,-14.62l-362.6 -201.86c-43.86,-39.31 -58.85,-40.63 -102.76,-85.41l-53.45 -40.6c-1.62,-1.44 -3.78,-3.65 -5.35,-5.11l-10.17 -10.74c-30.18,-30.19 -42.04,-26.46 -63.77,-61.67 -31.92,-51.66 -102.43,-111.26 -136.79,-166.35 -1.2,-1.94 -2.67,-4.65 -3.88,-6.59l-95.72 -155.12c-12.51,-20.09 1.94,2.54 -13.63,-17.75l-146.02 -355.74c-92.34,-229.7 -84.08,-658.01 -20.04,-905.76l10.25 -31.58c12.28,-28.79 -5.99,13.65 7.03,-13.87l147.22 -354.54c12.65,-19.49 12.13,-17.9 23.22,-39.48 20.36,-39.66 25.73,-43.04 48.8,-76.63l78.94 -109.22c9.3,-9.97 19.07,-21.61 27.77,-34.96l56.67 -68.77c32.47,-37.24 148.25,-153.33 193.92,-182.39 29.79,-18.94 7.31,2.31 37.82,-24.89 14.94,-13.35 2.36,-4.15 15.54,-15.84 56.24,-49.92 109.54,-72.82 131.4,-88.11 20.51,-14.34 19.59,-12.75 41.12,-21.58 64.57,-26.53 101.41,-58.25 169.86,-81 22.7,-7.56 26.13,-7.61 45.37,-17.35 75.49,-38.27 159.3,-46.67 238.89,-74.72 166.82,-58.8 556.25,-64.64 734.14,-14.47l22.99 8.36c2.39,0.89 4.98,2.23 7.36,3.1 66.54,24.79 153.01,33.17 212.76,59.03l174.15 76.7c54.9,31.87 110.1,53.15 160.54,90.35l177.03 136.57c24.68,26.75 4.47,6.64 36,26.73 20.48,13.03 18.52,11.56 34.11,28.61l30.3 32.4c57.59,52.76 108.16,129.88 147.59,197.39 1.54,2.66 10.24,20.38 10.47,20.88l43.63 113.17c11.59,24.17 5.14,9.5 11.66,19.67 62.95,98.33 105.52,256.56 130.8,370.95 0.25,1.17 6.17,24.34 6.39,24.99 0.82,2.51 1.94,5.17 2.81,7.63 26.95,74.71 54.9,298.4 43.64,344.44l-37.62 88.67c-3.33,6.71 -1.96,-0.58 -10.1,21.25l-17.5 76.85c-10.69,64.75 1.72,132.12 27.62,184.01 1.05,2.11 2.64,4.65 3.71,6.74 1.07,2.11 2.66,4.62 3.7,6.76 1.05,2.14 2.51,4.75 3.51,6.94 11.76,25.53 22.12,62.6 32.2,93.23l33.61 91.84c50.12,112.39 37.44,361.03 -11.16,466.48 0,0.02 -8.26,20.63 -8.88,22.47l-46.29 141.84z"/>
   <path class="fil0" d="M18827.89 16118.02c-29.14,-55.09 -60.74,-80.51 -90.92,-128.59 -14.49,-23.07 -11.83,-21.53 -30.31,-42.86l-203.89 -308.3c-0.18,-0.3 -12.19,-19.16 -12.19,-19.19l-161.46 -277.54c-25.95,-45.13 -36,-88.24 -65.14,-133.49 -1.21,-1.86 -2.98,-4.37 -4.15,-6.29 -1.21,-1.94 -2.85,-4.5 -4,-6.46 -2.91,-5.03 -12.08,-24 -13.9,-27.92l-132.54 -306.49c-29.19,-60.49 -36.92,-138.88 -62.36,-198.97l-72.84 -251.19c-0.97,-2.26 -2.41,-4.82 -3.39,-7.08 -0.96,-2.27 -2.36,-4.85 -3.28,-7.14l-13.67 -49.05c-19.62,-97.02 -28.97,-239.21 -56.39,-319.96l-5.84 -15.04c-5.45,-20.19 -3.33,-15.91 -4.9,-36.9 -4.13,-54.77 -8.38,-75.33 -9.95,-136.42l-19.49 -273.19c-12.77,-113.94 12.08,-476.36 40.1,-552.67 0.9,-2.41 2.27,-4.95 3.14,-7.33l24.74 -100.72c14.49,-54.52 70.96,-216.58 112.28,-253.57l183.61 -119.52c165.56,-62.43 406.57,-48.38 576.98,-1.12l67.75 26.33c2.12,1.05 4.65,2.64 6.79,3.68 16.46,7.93 15.94,7.43 29.51,12.31l345.2 198.35c1.56,1.47 3.67,3.73 5.29,5.15 1.62,1.41 3.9,3.51 5.59,4.87 2.37,1.92 9.68,6.94 12.19,8.7 62.48,44.21 93.38,95.48 147.85,144.85l142.24 181.8c14.33,18.1 6.12,5.19 18.68,23.15 10.29,14.69 21.48,36.12 30.45,53.15 10.1,19.2 13.95,30.86 24.92,48.26l13.17 18.2c32.13,48.66 52.14,115.71 75.31,165.09 15.24,32.44 31.68,146.06 62.21,188.68l26.77 35.93c66.31,104.89 228.57,143.13 368.02,88.9l41.85 -20.86c68.79,-30.23 151.56,-43.18 219.5,-73.17 80.09,-35.35 340.37,-87.94 435.15,-87.51 46.72,0.2 97.98,-3.28 141.35,5.27l53.47 19.69c5.5,3.03 23.9,14.62 25.74,16.08 13.92,11.15 21.21,14.82 26.43,37.03l-2.04 72.39c-14.25,41.33 -24.99,38.02 -38.84,76.56 -10.94,30.38 -15.89,53.7 -26.23,78.31 -20.91,49.75 -21.95,29.37 -45.57,69.4l-193.81 318.41c-48.93,64.49 -92.83,137.82 -148.28,196.67 -48.15,51.14 -101.06,150.37 -153.52,191.41 -49.4,38.64 -19.74,30.93 -49.98,65.02 -24.48,27.62 -23,8.2 -52.9,51.61 -5.17,7.48 -16.89,25.69 -21.41,30.86l-630.32 634.49c-31.03,29.26 -35,16.78 -64.96,50.03 -29.99,33.21 -55.27,39.5 -85.35,71.45 -1.47,1.56 -3.54,3.88 -4.98,5.47l-24.84 27.42 0 10.47c-1.89,1.61 -5.19,1.22 -6.09,4.37 -4.75,17.11 -89.97,67.21 -103,74.69 -34.66,19.89 -101.12,53.31 -110.44,88.19 63.67,-14.84 124.08,-53.55 182.81,-78.52l122.5 -44.78c36.25,-18.52 10.09,-21.38 68.22,-36.3 26.08,-6.68 62.16,-12.55 94.78,-20.21 86,-20.19 279.03,-67.55 339.55,-99.47 14.87,-7.83 3.65,-5.92 33.63,-18.63l242.02 -123.83c1.96,-1.2 4.57,-2.76 6.54,-3.91l107.78 -59.5c1.64,-1.39 3.7,-3.7 5.34,-5.09 1.64,-1.42 3.73,-3.71 5.4,-5.08l24.71 -17.1c22.03,-12.98 42.39,-22.37 65.86,-38.63 1.81,-1.27 4.35,-3.04 6.12,-4.35l366.17 -292.39c1.54,-1.47 3.78,-3.61 5.3,-5.15l176.23 -189.62c13.02,-15.64 10.09,-10.92 23.17,-29.12l183.68 -255.31c28.87,-61.66 65.99,-117.85 88.41,-183.39l39.56 -75.43c25.63,-35.7 35.75,-72.25 51.71,-115.51 21.38,-57.91 40.23,-79.61 64.07,-155.44l54.5 -165.02c29.09,-161.11 48.63,-372.14 -30.61,-514.73 -49.67,-89.42 -16.1,-47.11 -84.35,-145.64 -1.27,-1.84 -2.76,-4.55 -4,-6.44 -1.25,-1.91 -2.59,-4.7 -3.81,-6.64 -33.34,-52.98 -93.98,-94.48 -139.93,-131.85 -41.14,-33.46 -81.49,-44.85 -127.19,-71.4l-12.78 -8.15c-13.43,-8.46 8.5,2.3 -18.92,-12.43 -11.44,-6.15 -24.42,-10.65 -38.17,-14.1l-186.04 -33.47c-72.87,-7.43 -117.06,-27.47 -197.29,-23.72 -92.66,4.3 -11.48,15.09 -93.21,21.81 -78.29,6.46 -128.76,8.8 -198.8,20.71l-217.42 54.37c-159.89,53.56 -124.19,26.55 -203.43,-82.89l-108.87 -131.55c-18.92,-24.01 -4.42,-8.33 -15.44,-26.38 -21.91,-35.77 -2.86,-10.02 -35.68,-37.49 -34.01,-28.49 -41.94,-55.97 -72.52,-84.29 -20.96,-19.41 -18.18,-23.76 -39.01,-44.57l-559.61 -454.34c-76.28,-49.9 -106.39,-54.47 -169.09,-92.27 -51.74,-31.17 -109.25,-41.57 -161.01,-68.94 -2.04,-1.09 -11.39,-6.37 -13.52,-7.38 -12.04,-5.7 -14.84,-7.07 -30.56,-11.27 -21.18,-5.67 -39.61,-7.53 -60.19,-12.98l-195.82 -34.13c-96.22,-9.38 -43.24,-21.81 -208.99,-22.2 -9.68,-0.03 -32,-0.15 -40.71,1.12 -49.52,7.18 -17.25,4.77 -31.92,9.87l-312.99 73.79c-0.23,0.12 -18.68,12.9 -25.24,16.55 -46.02,25.56 -91.17,34.64 -133.09,65.52l-91.87 64.94c-3.38,3.36 -4.67,6.99 -15.48,15.86l-69.67 55.77c-64.86,75.83 -74.19,69.27 -148.23,165.36 -0.37,0.49 -12.08,13.9 -14.6,16.78l-209.71 417.47c-45.28,118.96 -37.52,85.65 -73.37,271.57 -26.13,135.41 -45.94,122.2 -45.1,352.13 0.57,155.24 -24.64,335.87 28.24,484l26.21 88.79c22.57,98.65 74.46,297.08 113.39,388.35 0.98,2.26 2.22,5 3.24,7.21l376.76 762.61c1.42,1.62 3.74,3.7 5.11,5.37 23.14,27.69 26.54,53.46 47.86,88.04l302.57 408.21c43.24,37.83 5.4,-2.26 32.57,40.61 18.4,29.04 16.46,22.07 40.82,42.79 32.88,27.94 43.69,55.44 83.22,94.5 1.54,1.49 3.68,3.73 5.17,5.27l62.85 62.58c44.31,45.6 52.66,71.05 112.86,117.13 7.93,6.06 15.66,12.95 22.6,19.22l101.14 97.45c16.36,13.86 24.46,22.44 39.25,33.92l143.21 97.21z"/>
   <path class="fil0" d="M18827.89 16118.02c6.79,25.54 -4.62,14.12 20.91,20.91 -7.21,-27.18 3.88,-11.66 -20.91,-20.91z"/>
   <path class="fil0" d="M16444.62 17581.43c-25.56,6.79 -14.15,-4.62 -20.91,20.91 27.17,-7.18 11.65,3.88 20.91,-20.91z"/>
   <polygon class="fil0" points="19580.53,15584.92 19580.53,15574.45 19558.06,15580.19 "/>
  </g>
 </g>
</svg>
